<?xml version="1.0" standalone="no"?>
<!DOCTYPE svg PUBLIC "-//W3C//DTD SVG 20010904//EN"
 "http://www.w3.org/TR/2001/REC-SVG-20010904/DTD/svg10.dtd">
<svg version="1.0" xmlns="http://www.w3.org/2000/svg"
 width="600.000000pt" height="600.000000pt" viewBox="0 0 600.000000 600.000000"
 preserveAspectRatio="xMidYMid meet">
<metadata>
Created by potrace 1.15, written by Peter Selinger 2001-2017
</metadata>
<g transform="translate(0.000000,600.000000) scale(0.100000,-0.100000)"
fill="#000000" stroke="none">
<path d="M2501 5740 c-115 -24 -265 -125 -335 -224 -66 -93 -76 -118 -76 -191
0 -79 17 -124 69 -180 70 -76 76 -91 76 -184 l0 -85 35 -24 c19 -13 37 -29 39
-35 6 -16 49 -58 88 -85 18 -13 46 -36 62 -52 48 -49 90 -42 205 30 53 33 97
60 99 60 6 0 25 -102 32 -167 5 -44 1 -61 -21 -105 -36 -71 -63 -106 -100
-129 -18 -10 -59 -41 -93 -68 -61 -49 -232 -139 -384 -202 -89 -37 -150 -95
-168 -161 -12 -46 -6 -81 26 -158 60 -142 146 -467 160 -600 6 -57 -13 -207
-39 -295 -18 -65 -90 -266 -106 -295 -7 -12 -13 -37 -14 -54 -1 -27 -106 -233
-172 -337 -12 -20 -34 -63 -48 -95 -13 -33 -48 -99 -77 -149 -93 -159 -98
-170 -145 -281 -48 -116 -57 -149 -104 -399 -38 -198 -39 -279 -6 -407 42
-163 117 -287 227 -373 102 -79 128 -90 315 -136 219 -53 320 -63 624 -64 276
0 286 1 460 68 171 66 229 86 281 96 37 8 95 35 171 80 64 38 142 78 174 90
133 49 283 145 348 221 29 35 56 38 124 11 122 -48 313 -96 672 -169 119 -24
449 -22 580 3 94 18 116 33 89 60 -11 11 -29 12 -94 3 -44 -6 -146 -10 -227
-9 -172 2 -274 25 -379 83 -122 68 -158 116 -322 420 -114 209 -112 205 -148
438 -25 163 -45 221 -125 362 -85 149 -167 212 -267 206 -44 -3 -52 -6 -52
-22 0 -15 11 -23 45 -31 149 -38 197 -105 253 -345 18 -78 22 -124 21 -260 0
-189 -14 -258 -84 -420 -82 -189 -84 -215 -7 -107 104 146 145 265 156 452 l6
110 17 -103 c21 -122 55 -206 148 -357 36 -60 84 -143 104 -182 27 -50 60 -93
107 -138 38 -36 67 -65 64 -65 -35 0 -294 61 -415 98 -131 40 -167 47 -232 46
-43 -1 -78 1 -78 3 0 2 11 8 25 13 29 11 42 37 27 52 -11 11 -132 -25 -232
-69 -186 -83 -436 -155 -710 -204 -30 -5 -77 -15 -105 -21 -27 -6 -138 -12
-245 -15 -248 -6 -279 1 -473 102 -199 104 -231 143 -208 257 9 39 25 71 64
119 28 37 79 104 111 149 41 57 94 111 175 179 64 54 125 109 136 121 11 13
70 65 132 116 139 116 171 168 203 324 40 192 27 336 -51 586 -15 51 -31 123
-34 160 l-5 69 14 -45 c53 -174 96 -252 168 -307 134 -103 272 -134 384 -88
54 22 111 82 128 133 20 65 45 197 48 257 3 45 1 50 -19 53 -14 2 -23 -3 -28
-17 -3 -12 -10 -21 -14 -21 -4 0 -13 -29 -20 -65 -7 -36 -23 -80 -35 -98 -22
-32 -23 -32 -104 -32 -79 0 -83 1 -107 30 -51 62 -65 105 -65 198 0 159 23
256 95 405 41 84 69 131 76 126 6 -3 28 -33 49 -65 49 -77 64 -137 49 -209
-16 -86 -16 -104 2 -108 30 -6 98 89 115 161 15 58 15 72 1 153 -9 49 -23 114
-32 144 -30 100 -5 414 39 498 l12 23 50 -33 c40 -27 52 -42 66 -83 33 -96 18
-208 -33 -256 -38 -35 -38 -59 0 -59 22 0 42 14 89 64 84 91 97 131 97 316 0
140 -1 147 -29 200 -39 74 -82 127 -119 146 l-30 16 56 30 c82 44 129 89 164
155 66 124 79 243 36 330 -30 62 -142 107 -151 61 -2 -10 9 -23 28 -35 37 -21
70 -71 70 -105 0 -32 -47 -103 -77 -117 -38 -17 -64 -13 -128 22 -58 31 -62
36 -115 137 -70 134 -102 179 -187 264 -77 77 -138 122 -171 128 -19 2 -32 24
-73 128 -57 145 -148 288 -214 338 -25 19 -79 48 -122 64 -66 26 -95 31 -183
34 -58 2 -125 -1 -149 -6z m206 -49 c66 -10 154 -45 214 -87 42 -29 137 -165
175 -250 39 -89 102 -178 139 -198 44 -24 211 -204 250 -269 16 -29 48 -87 69
-130 43 -86 84 -128 160 -163 83 -39 148 -29 199 29 l29 32 -7 -28 c-17 -79
-66 -155 -141 -221 -41 -36 -79 -66 -85 -66 -19 0 -8 -33 25 -72 19 -22 51
-72 71 -110 37 -70 37 -72 38 -192 1 -77 -4 -137 -13 -166 l-14 -45 -7 63
c-14 115 -62 179 -146 197 -18 3 -33 11 -33 16 0 39 -72 -65 -94 -136 -20 -64
-37 -313 -26 -385 4 -30 15 -73 24 -95 10 -22 19 -78 22 -125 l4 -85 -20 56
c-25 68 -78 132 -131 159 -38 20 -58 26 -46 14 4 -4 -4 -16 -17 -28 -29 -27
-75 -95 -111 -166 -56 -111 -91 -388 -62 -483 19 -61 72 -131 115 -151 18 -9
63 -19 101 -22 61 -6 74 -4 106 16 l36 22 -16 -38 c-18 -45 -66 -88 -114 -105
-46 -16 -157 -6 -211 18 -74 33 -147 94 -175 146 -86 157 -125 412 -89 585 10
49 -10 39 -34 -16 -43 -100 -63 -194 -69 -328 -6 -127 -5 -133 26 -230 38
-115 81 -324 81 -388 0 -24 -9 -93 -19 -155 -27 -151 -66 -224 -163 -306 -39
-33 -115 -100 -168 -150 -53 -49 -130 -117 -171 -149 -43 -35 -95 -88 -124
-129 -27 -39 -80 -109 -116 -155 -74 -94 -89 -131 -89 -216 0 -100 54 -171
176 -230 38 -18 92 -47 119 -65 93 -59 157 -73 378 -78 125 -4 218 -2 250 5
29 6 95 18 147 27 305 54 622 144 823 234 38 17 70 31 72 31 2 0 1 -9 -2 -21
-3 -12 -1 -24 6 -28 15 -10 -111 -107 -194 -149 -33 -17 -94 -44 -135 -60 -41
-16 -115 -54 -165 -86 -49 -31 -108 -61 -130 -67 -45 -11 -228 -72 -380 -127
l-100 -36 -230 -4 c-286 -5 -433 8 -646 58 -188 43 -217 56 -310 134 -111 93
-194 257 -224 443 -7 44 3 130 36 303 11 58 25 132 31 165 11 63 84 259 125
335 13 25 46 83 74 130 28 47 66 117 84 155 18 39 58 116 88 172 54 99 169
358 209 472 92 263 109 448 57 631 -11 41 -25 100 -30 130 -11 59 -51 182
-106 324 -39 102 -38 119 12 175 26 29 73 56 192 111 191 89 235 112 293 160
25 20 66 50 91 68 59 40 92 79 131 156 31 61 31 61 20 144 -13 98 -51 177 -89
187 -26 6 -56 -9 -147 -73 -27 -19 -60 -34 -73 -34 -12 0 -41 15 -62 33 -22
19 -58 48 -80 64 -22 17 -41 39 -43 50 -2 11 -18 27 -35 35 l-33 15 7 62 c7
79 -12 134 -72 205 -89 104 -99 175 -37 276 48 81 77 111 162 166 82 55 103
63 190 81 81 16 99 17 177 6z"/>
</g>
</svg>
